PathFileType	4	(X/Y/Z)	C:\Users\86182\Documents\cortex\Trimmed_M3_L1.trc
DataRate	CameraRate	NumFrames	NumMarkers	Units	OrigDataRate	OrigDataStartFrame	OrigNumFrames
100.00	100.00	       126	2	mm	100.00	361	       901
Frame#	Time	gripper			box			
		X1	Y1	Z1	X2	Y2	Z2	

361	3.600	273.29660	149.67981	285.00479	275.63992	148.12506	148.87451	
362	3.610	273.37817	149.64690	285.47339	275.39932	148.15103	149.44975	
363	3.620	273.30475	149.78304	285.96994	275.50162	148.20363	149.80841	
364	3.630	273.22595	149.79539	286.30988	275.67139	148.16791	150.09909	
365	3.640	273.11057	149.74368	286.71063	275.34698	148.26576	150.70747	
366	3.650	273.33743	149.62865	287.01318	275.17542	148.17209	151.06241	
367	3.660	273.41205	149.68242	287.57706	275.13541	148.09213	151.57483	
368	3.670	273.29785	149.75406	288.10095	275.08020	148.11354	151.85483	
369	3.680	273.12628	149.81490	288.40033	275.34628	148.07088	152.25555	
370	3.690	273.33539	149.79515	288.70227	275.20819	148.07692	152.83366	
371	3.700	273.33548	149.70605	289.03076	275.09195	148.11595	153.27486	
372	3.710	273.25732	149.68735	289.46954	275.03354	148.12477	153.52104	
373	3.720	273.45514	149.69749	289.91110	275.22693	148.04254	153.90982	
374	3.730	273.45474	149.87717	290.38690	275.27808	148.13124	154.09142	
375	3.740	273.30328	149.78792	290.62784	275.25229	148.05516	154.60078	
376	3.750	273.31100	149.76532	290.87567	275.39081	148.08600	154.93410	
377	3.760	273.33636	149.75644	291.15396	275.17606	148.16959	155.34146	
378	3.770	273.41367	149.75227	291.37317	275.21899	148.11642	155.57079	
379	3.780	273.73508	149.75291	291.80969	275.19495	148.13097	155.72125	
380	3.790	273.61636	149.74565	292.08511	275.32578	148.18257	156.10883	
381	3.800	273.54333	149.78107	292.42722	275.40930	148.15244	156.26051	
382	3.810	273.49490	149.80988	292.59094	275.38354	148.13017	156.32440	
383	3.820	273.47348	149.78172	292.65924	275.37875	148.10622	156.50858	
384	3.830	273.55139	149.81596	292.68317	275.17392	148.19138	156.70166	
385	3.840	273.50500	149.81201	292.81573	275.29395	148.23213	156.83411	
386	3.850	273.47467	149.81979	292.84998	275.26944	148.23206	156.89310	
387	3.860	273.39407	149.85263	292.92673	275.12903	148.25162	157.12659	
388	3.870	273.39038	149.87759	293.04883	275.14072	148.24857	157.15805	
389	3.880	273.45505	149.89635	293.11536	275.17514	148.29567	157.29015	
390	3.890	273.47635	149.95067	293.20544	275.17444	148.29100	157.33769	
391	3.900	273.42795	149.93974	293.29257	275.22101	148.25687	157.34384	
392	3.910	273.38315	149.91986	293.31998	275.18301	148.24472	157.39801	
393	3.920	273.30045	149.90073	293.37378	275.20404	148.20473	157.41139	
394	3.930	273.31442	149.90674	293.36636	275.26984	148.22197	157.44592	
395	3.940	273.34085	149.89922	293.36279	275.28644	148.17352	157.47287	
396	3.950	273.33630	149.89383	293.36215	275.29865	148.18684	157.45570	
397	3.960	273.32806	149.89490	293.36423	275.29456	148.17368	157.48256	
398	3.970	273.36417	149.88788	293.35083	275.29501	148.16527	157.46896	
399	3.980	273.38947	149.88661	293.33597	275.29248	148.15639	157.45070	
400	3.990	273.41354	149.88820	293.32846	275.29376	148.14166	157.42758	
401	4.000	273.41116	149.87744	293.32251	275.27509	148.14308	157.40546	
402	4.010	273.41888	149.88367	293.32089	275.27905	148.15770	157.43523	
403	4.020	273.39444	149.88554	293.32254	275.29419	148.14308	157.43054	
404	4.030	273.41486	149.89293	293.32053	275.27905	148.15770	157.43523	
405	4.040	273.41183	149.88293	293.32666	275.29709	148.16293	157.46777	
406	4.050	273.42386	149.89940	293.32635	275.29791	148.15616	157.45746	
407	4.060	273.42648	149.88480	293.32751	275.29916	148.16060	157.46657	
408	4.070	273.44653	149.89561	293.29068	275.29001	148.13821	157.41689	
409	4.080	273.43655	149.84427	293.24683	275.23663	148.15570	157.37619	
410	4.090	273.32022	149.80423	293.18396	275.19162	148.14290	157.35876	
411	4.100	273.35071	149.81900	293.09174	274.93869	148.02309	157.24864	
412	4.110	273.30234	149.82062	293.02426	274.94769	147.95853	157.21422	
413	4.120	273.24747	149.81839	292.98727	274.95425	147.93512	157.18344	
414	4.130	273.25842	149.83543	292.93225	274.96603	147.89865	157.12337	
415	4.140	273.26138	149.83495	292.93100	274.94586	147.86729	157.12204	
416	4.150	273.27753	149.80800	292.92499	274.93079	147.81963	157.11758	
417	4.160	273.24954	149.79820	292.93716	274.92093	147.80286	157.12215	
418	4.170	273.23935	149.80167	292.96127	274.95102	147.82355	157.11771	
419	4.180	273.28796	149.81920	293.00983	274.95587	147.91945	157.15924	
420	4.190	273.30319	149.81215	293.01938	274.96127	147.93866	157.20395	
421	4.200	273.31494	149.81396	293.03903	274.96667	147.93208	157.19998	
422	4.210	273.33762	149.80771	293.02499	274.99930	147.91299	157.18739	
423	4.220	273.36450	149.80351	293.00870	275.04178	147.87491	157.14041	
424	4.230	273.35645	149.79857	293.00018	275.04108	147.83887	157.09062	
425	4.240	273.27966	149.79031	292.94907	274.99985	147.83698	157.09833	
426	4.250	273.28342	149.79097	292.92554	274.94510	147.82280	157.12833	
427	4.260	273.26169	149.79623	292.93207	274.96219	147.82285	157.11020	
428	4.270	273.24985	149.79643	292.93961	275.01395	147.84966	157.09563	
429	4.280	273.24652	149.79871	292.93845	275.00259	147.86444	157.12512	
430	4.290	273.24390	149.80624	292.95038	274.99792	147.85307	157.10291	
431	4.300	273.21796	149.80569	292.97684	274.94882	147.82523	157.12740	
432	4.310	273.23691	149.80191	292.96933	274.97488	147.91583	157.17812	
433	4.320	273.28561	149.82791	293.02444	274.99374	147.88338	157.14830	
434	4.330	273.25964	149.82564	292.98187	274.98016	147.91893	157.19023	
435	4.340	273.23349	149.80817	292.99319	274.97174	147.90364	157.14488	
436	4.350	273.24179	149.81552	292.98724	274.98767	147.86736	157.11345	
437	4.360	273.21494	149.80734	292.95239	274.98706	147.84599	157.10562	
438	4.370	273.21945	149.80309	292.94980	274.97980	147.84126	157.10742	
439	4.380	273.23682	149.79799	292.94592	274.95151	147.81238	157.11205	
440	4.390	273.27332	149.79204	292.93063	275.02011	147.83264	157.08916	
441	4.400	273.26523	149.79161	292.96045	274.94977	147.83664	157.11858	
442	4.410	273.31216	149.80176	292.98093	275.01489	147.86401	157.12659	
443	4.420	273.28857	149.81163	292.99026	275.00333	147.86792	157.13492	
444	4.430	273.37195	149.80112	293.00735	275.01245	147.87253	157.14676	
445	4.440	273.29343	149.78223	292.94452	275.01990	147.87209	157.12401	
446	4.450	273.27814	149.79381	292.95477	275.02084	147.85756	157.12021	
447	4.460	273.26990	149.81798	292.98288	275.02612	147.84706	157.09012	
448	4.470	273.24713	149.79517	292.94333	275.00162	147.87364	157.11798	
449	4.480	273.24652	149.79871	292.93845	275.00156	147.86055	157.10893	
450	4.490	273.30682	149.78391	292.93811	274.97610	147.83885	157.10835	
451	4.500	273.25058	149.81032	292.93634	275.00757	147.85321	157.09700	
452	4.510	273.26886	149.81606	292.95416	274.98456	147.83392	157.10379	
453	4.520	273.27890	149.82100	292.95361	274.99792	147.85307	157.10291	
454	4.530	273.22629	149.80182	292.95221	274.96170	147.88646	157.15962	
455	4.540	273.24762	149.81104	292.99194	274.94870	147.94182	157.18744	
456	4.550	273.25327	149.81230	293.00223	274.98129	147.91185	157.17982	
457	4.560	273.24432	149.82022	292.97092	275.00848	147.86147	157.09656	
458	4.570	273.30646	149.81644	293.00781	274.99890	147.85579	157.10876	
459	4.580	273.20752	149.80502	292.95480	275.01114	147.86357	157.09496	
460	4.590	273.22543	149.80212	292.94730	275.01074	147.84409	157.09561	
461	4.600	273.26904	149.79985	292.93976	275.00729	147.85370	157.09932	
462	4.610	273.27426	149.78670	292.93802	274.99799	147.84784	157.11571	
463	4.620	273.30066	149.79204	292.95801	275.01743	147.87050	157.09763	
464	4.630	273.36227	149.79648	292.99222	275.02676	147.85806	157.10382	
465	4.640	273.35864	149.78313	292.97122	275.02243	147.86096	157.12007	
466	4.650	273.36578	149.80212	293.00992	275.05325	147.85101	157.11929	
467	4.660	273.38748	149.79855	293.00089	275.00397	147.89336	157.12468	
468	4.670	273.33145	149.79431	292.96582	275.02493	147.87387	157.12796	
469	4.680	273.32855	149.80409	292.99701	275.03809	147.90938	157.10410	
470	4.690	273.28207	149.80455	292.96356	274.98889	147.89822	157.12395	
471	4.700	273.30023	149.82401	292.91565	275.07193	147.90076	157.06343	
472	4.710	273.30801	149.83237	292.93668	274.98779	147.89555	157.11804	
473	4.720	273.26468	149.81413	292.93024	274.99792	147.85307	157.10291	
474	4.730	273.22739	149.79973	292.95956	274.98981	147.86810	157.10889	
475	4.740	273.21378	149.80830	292.95425	274.98444	147.86925	157.11240	
476	4.750	273.24747	149.81839	292.98727	274.97778	147.89302	157.14355	
477	4.760	273.26938	149.81268	293.01117	274.98087	147.90088	157.16083	
478	4.770	273.31076	149.81696	293.02417	274.98047	147.88976	157.14160	
479	4.780	273.30350	149.79985	293.01205	275.00763	147.86943	157.12599	
480	4.790	273.32477	149.82976	293.01581	274.98413	147.89452	157.14581	
481	4.800	273.34546	149.82602	292.98630	274.99469	147.89664	157.15471	
482	4.810	273.30203	149.78970	292.96994	275.02847	147.86522	157.08630	
483	4.820	273.25061	149.81326	292.95370	275.02789	147.90225	157.11012	
484	4.830	273.33954	149.81274	292.95276	275.04413	147.91591	157.08449	
485	4.840	273.35666	149.80884	292.92929	275.05804	147.88194	157.08134	
486	4.850	273.39734	149.83665	292.94040	274.99619	147.93456	157.08243	
